<?xml version="1.0" encoding="UTF-8" standalone="no"?>
<!-- Created with Inkscape (http://www.inkscape.org/) -->

<svg
   xmlns:dc="http://purl.org/dc/elements/1.1/"
   xmlns:cc="http://creativecommons.org/ns#"
   xmlns:rdf="http://www.w3.org/1999/02/22-rdf-syntax-ns#"
   xmlns:svg="http://www.w3.org/2000/svg"
   xmlns="http://www.w3.org/2000/svg"
   xmlns:sodipodi="http://sodipodi.sourceforge.net/DTD/sodipodi-0.dtd"
   xmlns:inkscape="http://www.inkscape.org/namespaces/inkscape"
   version="1.1"
   id="svg5942"
   xml:space="preserve"
   width="800"
   height="800"
   viewBox="0 0 800 800"
   sodipodi:docname="black-bear-publicdomainvectors.org.svg"
   inkscape:version="0.92.4 (5da689c313, 2019-01-14)"><metadata
     id="metadata5948"><rdf:RDF><cc:Work
         rdf:about=""><dc:format>image/svg+xml</dc:format><dc:type
           rdf:resource="http://purl.org/dc/dcmitype/StillImage" /><dc:title></dc:title></cc:Work></rdf:RDF></metadata><defs
     id="defs5946"><clipPath
       clipPathUnits="userSpaceOnUse"
       id="clipPath5958"><path
         d="M 0,600 H 600 V 0 H 0 Z"
         id="path5956"
         inkscape:connector-curvature="0" /></clipPath></defs><sodipodi:namedview
     pagecolor="#ffffff"
     bordercolor="#666666"
     borderopacity="1"
     objecttolerance="10"
     gridtolerance="10"
     guidetolerance="10"
     inkscape:pageopacity="0"
     inkscape:pageshadow="2"
     inkscape:window-width="1920"
     inkscape:window-height="1018"
     id="namedview5944"
     showgrid="false"
     inkscape:zoom="0.87571678"
     inkscape:cx="408.47458"
     inkscape:cy="406.77966"
     inkscape:window-x="-8"
     inkscape:window-y="-8"
     inkscape:window-maximized="1"
     inkscape:current-layer="g5950" /><g
     id="g5950"
     inkscape:groupmode="layer"
     inkscape:label="black-bear-publicdomainvectors.org"
     transform="matrix(1.3333333,0,0,-1.3333333,0,800)"><g
       id="g5952"><g
         id="g5954"
         clip-path="url(#clipPath5958)"><path
           d="m 550.396,408.379 c -6.083,-81.732 -57.268,-128.631 -66.6,-142.628 -10.808,-16.212 -3.753,-16.665 -18.913,-29.722 -30.025,-17.415 7.655,-18.764 -17.562,-36.78 -12.028,-8.591 -38.277,-12.552 -55.732,-11.856 -3.969,0.158 -2.759,3.009 -6.644,3.264 -5.11,0.33 -15.394,-1.843 -19.25,-1.239 -2.973,0.466 -0.903,3.659 -3.041,4.054 -3.143,0.578 -11.561,-2.708 -11.709,-2.253 -8.106,10.51 35.136,36.866 34.677,47.812 -0.689,16.412 -3.904,25.822 6.305,52.24 10.208,26.42 20.115,62.448 17.113,70.256 -0.49,-13.88 -18.106,-54.569 -30.322,-61.55 -23.117,-13.208 -61.548,2.102 -76.559,6.305 3.529,18.015 4.653,40.382 14.411,69.054 -7.206,2.999 -13.737,-44.884 -22.142,-69.503 -8.406,-24.62 7.429,-26.121 -15.537,-59.896 -22.104,-32.502 -3.527,-45.561 -15.537,-56.968 -5.796,-5.508 -18.335,-7.201 -30.399,-6.305 -2.082,0.155 -0.781,2.797 -3.04,2.927 -6.137,0.351 -15.674,-1.938 -21.615,-1.352 -1.779,0.173 0.65,3.179 -1.127,3.299 -3.67,0.245 -9.277,-1.723 -12.721,-1.723 -5.706,7.657 1.211,13.686 9.456,24.32 8.557,11.032 11.272,22.424 13.585,25.894 4.803,7.205 -4.802,33.024 -9.006,57.418 -4.205,24.393 -1.351,52.465 -19.664,43.909 11.483,11.711 15.912,20.568 9.757,37.679 -1.501,13.211 17.297,27.292 30.473,43.233 7.279,8.809 22.366,58.921 -10.509,76.259 13.062,20.265 7.309,39.648 -15.033,44.932 -4.951,0.583 -10.636,-5.584 -10.636,-5.584 0,0 -22.817,22.048 -89.168,9.515 28.597,41.881 80.085,58.545 122.718,44.133 42.634,-14.411 69.353,-65.526 89.619,-67.327 -6.823,1.008 -54.123,52.492 -31.975,62.148 70.896,30.912 240.068,-7.452 263.583,-120.621 0.807,-3.889 11.984,-13.443 12.882,-20.35 6.129,-18.601 -9.178,-20.063 -10.138,-32.994 M 185.22,195.498 c 0,0 0.617,-3.181 -21.619,-5.855 -23.714,-2.851 -34.234,4.042 -54.04,18.464 -3.158,2.302 -9.908,8.332 -21.165,26.345 -11.259,18.015 -3.141,76.77 -1.79,91.181 1.351,14.412 -26.358,27.488 -26.358,59.911 10.659,0 48.074,-10.133 62.936,-37.829 4.827,-8.996 7.136,-2.026 19.927,-11.485 17.925,-13.251 28.597,-17.937 44.811,-0.564 0,0 -1.126,-59.106 -16.888,-76.895 -6.68,-7.537 -35.008,16.587 -38.055,26.796 -6.754,-4.504 26.345,-38.618 43.009,-40.643 6.507,-0.792 8.781,-8.895 7.431,-11.597 -1.354,-2.702 12.158,-6.756 16.661,-7.206 4.503,-0.45 -4.052,-1.802 -14.86,-5.404 -10.811,-3.603 26.343,-7.318 -0.902,-10.358 -9.344,-1.043 5.855,-7.656 10.36,-5.854 0.899,-4.504 -9.458,-5.404 -15.764,-3.603 -6.079,-3.715 6.306,-5.404 6.306,-5.404 m -58.989,227.546 c 0.077,0.267 0.123,0.631 0.293,0.979 0.152,0.359 0.333,0.775 0.573,1.204 0.266,0.405 0.558,0.862 0.923,1.302 0.408,0.399 0.804,0.879 1.332,1.236 0.505,0.394 1.071,0.754 1.706,1.025 0.612,0.306 1.307,0.492 2,0.638 l 1.066,0.135 c 0.362,0.006 0.724,-0.018 1.078,-0.03 0.711,-0.085 1.417,-0.204 2.048,-0.495 0.649,-0.222 1.201,-0.628 1.702,-0.979 0.453,-0.438 0.882,-0.825 1.143,-1.294 0.307,-0.417 0.516,-0.855 0.645,-1.276 0.161,-0.399 0.227,-0.734 0.233,-1.008 0.043,-0.552 0.037,-0.883 0.037,-0.883 0,0 -0.264,0.197 -0.677,0.568 -0.188,0.208 -0.471,0.389 -0.739,0.567 -0.254,0.194 -0.579,0.362 -0.923,0.545 -0.314,0.213 -0.745,0.286 -1.095,0.457 -0.411,0.082 -0.79,0.222 -1.224,0.247 -0.409,0.083 -0.858,0.052 -1.292,0.064 -0.447,-0.025 -0.895,-0.059 -1.351,-0.159 -0.454,-0.086 -0.914,-0.193 -1.362,-0.345 -0.221,-0.085 -0.448,-0.152 -0.675,-0.221 -0.218,-0.097 -0.43,-0.198 -0.654,-0.282 -0.877,-0.361 -1.669,-0.836 -2.421,-1.238 -0.681,-0.468 -1.35,-0.838 -1.773,-1.162 -0.453,-0.299 -0.749,-0.469 -0.749,-0.469 0,0 0.031,0.321 0.156,0.874 m 19.888,-59.183 1.169,-1.274 c 0.368,-0.439 0.811,-0.816 1.209,-1.227 0.816,-0.807 1.696,-1.556 2.602,-2.268 0.897,-0.727 1.86,-1.364 2.802,-2.034 0.965,-0.637 1.951,-1.25 2.961,-1.819 2.026,-1.142 4.151,-2.115 6.305,-3.042 1.659,-0.709 3.365,-1.318 5.094,-1.916 0.394,0.865 0.879,1.661 1.422,2.376 0.912,1.194 1.964,2.208 3.072,3.112 2.254,1.758 4.72,3.101 7.302,4.118 2.592,0.979 5.292,1.7 8.075,1.832 1.384,0.071 2.8,-0.007 4.152,-0.415 0.672,-0.196 1.33,-0.492 1.89,-0.92 0.557,-0.426 1.002,-0.997 1.243,-1.62 -0.742,1.163 -2.056,1.62 -3.297,1.773 -1.269,0.146 -2.561,0.013 -3.824,-0.221 -2.527,-0.518 -4.978,-1.432 -7.266,-2.611 -2.294,-1.163 -4.47,-2.572 -6.305,-4.259 -1.832,-1.639 -3.383,-3.664 -3.746,-5.693 l -0.335,-1.864 -1.878,0.585 c -2.311,0.716 -4.659,1.497 -6.955,2.429 -2.305,0.911 -4.54,2.025 -6.701,3.279 -1.08,0.631 -2.132,1.308 -3.167,2.023 -1.026,0.723 -2.016,1.503 -2.961,2.334 -0.831,0.721 -1.62,1.491 -2.378,2.292 0.028,-0.405 0.043,-0.807 0.075,-1.209 0.115,-1.807 0.281,-3.616 0.529,-5.41 0.23,-1.797 0.531,-3.584 0.988,-5.332 0.467,-1.732 1.018,-3.493 2.185,-4.93 -1.471,1.157 -2.411,2.888 -3.173,4.586 -0.754,1.721 -1.317,3.516 -1.804,5.318 -0.463,1.814 -0.838,3.641 -1.163,5.477 -0.295,1.848 -0.537,3.676 -0.712,5.571 l -0.391,4.212 z m 36.474,67.887 c 0.485,0.156 1.04,0.303 1.559,0.547 0.283,0.086 0.499,0.276 0.763,0.385 0.213,0.172 0.477,0.293 0.635,0.508 0.215,0.16 0.364,0.376 0.514,0.591 0.152,0.213 0.249,0.472 0.383,0.701 0.071,0.264 0.16,0.525 0.252,0.778 0.054,0.274 0.104,0.533 0.151,0.771 0.131,0.491 0.113,0.932 0.187,1.248 0.052,0.314 0.097,0.506 0.097,0.506 0,0 0.102,-0.152 0.256,-0.443 0.126,-0.294 0.408,-0.703 0.493,-1.268 0.059,-0.28 0.142,-0.588 0.157,-0.924 -0.009,-0.34 -0.005,-0.71 -0.063,-1.088 -0.127,-0.369 -0.173,-0.796 -0.409,-1.156 -0.218,-0.37 -0.458,-0.739 -0.786,-1.029 -0.641,-0.598 -1.431,-0.958 -2.163,-1.091 -0.731,-0.174 -1.409,-0.136 -1.968,-0.065 -1.123,0.16 -1.776,0.575 -1.776,0.575 0,0 0.687,0.183 1.718,0.454 m -46.011,-82.233 c 0,0 21.615,-20.264 33.325,-18.463 11.709,1.802 25.67,19.816 25.218,29.274 -0.898,9.456 -16.211,54.265 -14.634,63.609 0.9,-3.003 13.736,-38.053 13.736,-38.053 5.514,17.563 24.769,19.027 34.675,47.849 9.909,28.821 -2.701,49.537 -17.113,57.644 13.06,16.213 6.755,35.127 -4.954,39.629 -14.861,-2.252 -13.511,-22.516 -13.511,-22.516 0,0 -2.251,5.403 -2.7,20.264 -34.228,22.068 -105.382,6.757 -122.044,-3.602 0,0 9.005,-5.404 9.005,-17.562 -13.959,17.562 -44.133,6.303 -44.582,-2.703 -0.451,-9.007 7.205,-36.477 28.372,-32.425 -13.961,-6.305 -20.265,0.9 -22.968,2.252 -3.604,-17.563 -15.312,-38.28 -7.656,-51.789 7.656,-13.51 15.762,-33.325 61.696,-40.083 37.381,-19.363 31.975,-38.728 44.135,-33.325"
           style="fill:#110f0d;fill-opacity:1;fill-rule:nonzero;stroke:none"
           id="path5960"
           inkscape:connector-curvature="0" /></g></g></g></svg>